<svg width="24" height="24" viewBox="0 0 24 24" fill="none" xmlns="http://www.w3.org/2000/svg">
<path d="M7.42552 13.6547L3.36042 12.3302C3.36042 12.3302 2.8746 12.1331 3.03104 11.6862C3.06324 11.594 3.1282 11.5156 3.32253 11.3808C4.22325 10.753 19.9941 5.0845 19.9941 5.0845C19.9941 5.0845 20.4394 4.93445 20.702 5.03425C20.767 5.05436 20.8254 5.09137 20.8714 5.14149C20.9174 5.19161 20.9492 5.25304 20.9636 5.3195C20.992 5.43689 21.0039 5.55765 20.9989 5.67832C20.9976 5.7827 20.985 5.87945 20.9754 6.03116C20.8794 7.58094 18.005 19.1474 18.005 19.1474C18.005 19.1474 17.833 19.8243 17.2168 19.8475C17.0654 19.8523 16.9145 19.8267 16.7732 19.772C16.6319 19.7174 16.5031 19.6348 16.3944 19.5293C15.1852 18.4892 11.006 15.6806 10.0826 15.0629C10.0617 15.0487 10.0442 15.0302 10.0311 15.0087C10.018 14.9871 10.0097 14.963 10.0068 14.938C9.99387 14.8729 10.0647 14.7922 10.0647 14.7922C10.0647 14.7922 17.3417 8.32384 17.5354 7.64479C17.5504 7.59219 17.4937 7.56623 17.4177 7.58927C16.9343 7.76708 8.55569 13.0583 7.63096 13.6422C7.56439 13.6624 7.49404 13.6666 7.42552 13.6547Z" fill="white"/>
</svg>
