<svg width="24" height="24" viewBox="0 0 24 24" fill="none" xmlns="http://www.w3.org/2000/svg">
<path d="M22 11.7069C22 17.0489 17.6351 21.4137 12.1629 21.4137C10.4691 21.4137 8.84039 20.9576 7.40716 20.1759L2 22L3.75896 16.7883C2.84691 15.2899 2.32573 13.5961 2.32573 11.772C2.39088 6.36482 6.7557 2 12.1629 2C17.57 2 22 6.36482 22 11.7069ZM12.1629 3.56351C7.60261 3.56351 3.9544 7.21172 3.9544 11.7069C3.9544 13.4658 4.54071 15.1596 5.51791 16.5277L4.47557 19.5896L7.66775 18.6124C8.97069 19.4592 10.5342 19.9805 12.228 19.9805C16.7883 19.9805 20.5016 16.3323 20.5016 11.772C20.4365 7.21172 16.7231 3.56351 12.1629 3.56351ZM17.114 13.987C17.0489 13.8567 16.9186 13.8567 16.658 13.7264C16.3974 13.5961 15.2248 13.0098 15.0293 12.9447C14.8339 12.8795 14.6385 12.8143 14.5082 13.075C14.3778 13.3355 13.8567 13.8567 13.7264 13.987C13.5961 14.1172 13.4658 14.1824 13.2052 14.0521C12.9447 13.9218 12.1629 13.6612 11.2508 12.8795C10.5342 12.228 10.0782 11.4463 9.88273 11.2508C9.75245 10.9902 9.88273 10.8599 10.013 10.7948C10.1433 10.6645 10.2736 10.5342 10.4039 10.4039C10.5342 10.2736 10.5342 10.1433 10.6645 10.013C10.7296 9.88273 10.7296 9.68729 10.6645 9.62215C10.5994 9.49186 10.1433 8.31922 9.94789 7.86319C9.75244 7.40716 9.557 7.47231 9.42671 7.47231C9.29642 7.47231 9.10098 7.47231 8.97069 7.47231C8.84039 7.47231 8.5798 7.53746 8.31922 7.79805C8.05863 8.05863 7.47231 8.64495 7.47231 9.81759C7.47231 10.9902 8.31922 12.0977 8.44951 12.2931C8.5798 12.4234 10.1433 14.9642 12.5537 15.8762C15.0293 16.8534 15.0293 16.5277 15.4202 16.4626C15.8762 16.3974 16.8534 15.8762 17.0489 15.355C17.1791 14.5733 17.1791 14.0521 17.114 13.987Z" fill="white"/>
</svg>
