<svg width="24" height="24" viewBox="0 0 24 24" fill="none" xmlns="http://www.w3.org/2000/svg">
<path d="M6.94787 8.06174C7.45038 9.29611 8.08724 10.4599 8.92604 11.5047C9.03729 11.6437 9.17752 11.7673 9.32526 11.868C9.54104 12.0154 9.74464 11.9636 9.83238 11.7181C9.92518 11.4604 10.0103 10.9382 10.0154 10.6676C10.0292 9.96067 10.0133 9.49734 9.97514 8.79123C9.95039 8.33898 9.78876 7.94188 9.11997 7.82202C8.91343 7.78486 8.89425 7.61575 9.02694 7.44706C9.30318 7.09586 9.688 7.03989 10.1053 7.01774C10.7816 6.9814 11.4605 7.01106 12.1376 7.01774C12.4135 7.02026 12.6909 7.04236 12.9626 7.10126C13.3169 7.1781 13.5066 7.42532 13.565 7.76939C13.5952 7.94686 13.6108 8.12933 13.6066 8.30891C13.5889 9.08061 13.5516 9.85188 13.5428 10.6232C13.539 10.9259 13.5612 11.2362 13.6263 11.531C13.7174 11.9419 13.9987 12.045 14.2863 11.7482C14.6515 11.3711 14.9735 10.9468 15.2757 10.5159C15.8249 9.73207 16.235 8.87187 16.5881 7.98494C16.7707 7.52729 16.9105 7.42789 17.4054 7.42665C18.3357 7.42455 19.266 7.42372 20.1963 7.42665C20.3613 7.42748 20.5339 7.44294 20.6896 7.49223C20.9423 7.57241 21.0427 7.77744 20.9835 8.03762C20.8454 8.6473 20.5141 9.1655 20.1594 9.6637C19.5901 10.4629 18.9936 11.243 18.4109 12.0331C18.3366 12.1337 18.2711 12.241 18.2102 12.35C17.9923 12.7417 18.0075 12.9613 18.3252 13.2874C18.8311 13.8065 19.3727 14.2921 19.8626 14.8254C20.2186 15.2133 20.5481 15.6342 20.8303 16.0773C21.1871 16.6377 20.9667 17.1655 20.3 17.2594C19.8807 17.3183 17.8321 17.2599 17.7262 17.2594C17.1754 17.257 16.6926 17.0669 16.3039 16.6949C15.8715 16.2807 15.4785 15.8263 15.0633 15.3941C14.9382 15.2638 14.8047 15.139 14.6607 15.0299C14.3211 14.7723 13.9878 14.8295 13.8291 15.2262C13.6935 15.567 13.5763 16.4618 13.5709 16.5383C13.5423 16.9379 13.2867 17.1926 12.8366 17.2172C11.5373 17.2874 10.2783 17.1433 9.10534 16.5182C8.11121 15.9887 7.31737 15.24 6.62971 14.3668C5.53736 12.98 4.67455 11.4555 3.88682 9.88626C3.84656 9.80603 3.04871 8.11729 3.02727 8.03753C2.95601 7.77044 3.02249 7.5153 3.24936 7.42748C3.39079 7.37274 6.02133 7.42729 6.06509 7.42963C6.48483 7.45223 6.77105 7.62838 6.94787 8.06174Z" fill="white"/>
</svg>
