<svg width="79" height="40" viewBox="0 0 79 40" fill="none" xmlns="http://www.w3.org/2000/svg">
<path d="M1.66016 11.509H3.93482V18.5485H12.8898V11.509H15.1645V27.9345H12.8898V20.5358H3.93482V27.9345H1.66016V11.509Z" fill="#18191B"/>
<path d="M26.3626 28.2218C23.7607 28.2218 21.7414 27.5115 20.3048 26.0908C18.8841 24.6542 18.1738 22.5312 18.1738 19.7218C18.1738 16.9123 18.8841 14.7973 20.3048 13.3766C21.7414 11.94 23.7607 11.2217 26.3626 11.2217C28.9804 11.2217 30.9997 11.94 32.4204 13.3766C33.857 14.7973 34.5753 16.9123 34.5753 19.7218C34.5753 22.5152 33.857 24.6303 32.4204 26.0669C30.9997 27.5035 28.9804 28.2218 26.3626 28.2218ZM26.3626 26.2824C28.2621 26.2824 29.7147 25.7716 30.7204 24.75C31.726 23.7124 32.2288 22.0683 32.2288 19.8175V19.7218C32.2129 17.4391 31.7021 15.779 30.6964 14.7414C29.6908 13.6879 28.2462 13.1611 26.3626 13.1611C24.4949 13.1611 23.0583 13.6879 22.0527 14.7414C21.047 15.779 20.5362 17.4391 20.5203 19.7218V19.8175C20.5203 22.0683 21.0231 23.7124 22.0287 24.75C23.0344 25.7716 24.479 26.2824 26.3626 26.2824Z" fill="#18191B"/>
<path d="M41.8619 13.4963H36.2112V11.509H49.7874V13.4963H44.1366V27.9345H41.8619V13.4963Z" fill="#18191B"/>
<path d="M52.2135 11.509H64.8559V13.4963H54.4882V18.5485H63.8024V20.5358H54.4882V25.9472H64.9996V27.9345H52.2135V11.509Z" fill="#18191B"/>
<path d="M68.1839 11.509H70.4586V25.9472H78.8868V27.9345H68.1839V11.509Z" fill="#18191B"/>
<path d="M4.30242 38.0874C4.30242 38.6891 4.08418 39.1583 3.6477 39.495C3.21122 39.8318 2.61886 40.0001 1.87062 40.0001C1.06002 40.0001 0.436477 39.8957 0 39.6868V38.9198C0.280592 39.0383 0.586126 39.1318 0.916602 39.2004C1.24708 39.269 1.57443 39.3033 1.89867 39.3033C2.42868 39.3033 2.82775 39.2035 3.09587 39.004C3.36399 38.8014 3.49805 38.5208 3.49805 38.1622C3.49805 37.9253 3.44973 37.732 3.35308 37.5823C3.25955 37.4296 3.10055 37.2893 2.87607 37.1614C2.65472 37.0336 2.31645 36.8886 1.86126 36.7265C1.22525 36.4989 0.77007 36.2293 0.495713 35.9175C0.224474 35.6057 0.0888542 35.1989 0.0888542 34.6969C0.0888542 34.17 0.286828 33.7507 0.682775 33.4389C1.07872 33.1272 1.60249 32.9713 2.25409 32.9713C2.93375 32.9713 3.55885 33.096 4.12938 33.3454L3.88153 34.0375C3.31723 33.8006 2.76851 33.6821 2.23539 33.6821C1.8145 33.6821 1.48558 33.7725 1.24864 33.9533C1.01169 34.1342 0.893219 34.3851 0.893219 34.7063C0.893219 34.9432 0.936867 35.1381 1.02416 35.2908C1.11146 35.4405 1.25799 35.5792 1.46376 35.707C1.67264 35.8318 1.99065 35.9705 2.41777 36.1233C3.13484 36.3789 3.62744 36.6533 3.89556 36.9463C4.1668 37.2394 4.30242 37.6197 4.30242 38.0874Z" fill="#C6AF66"/>
<path d="M10.6784 39.9066H9.8834V33.7756H7.71816V33.0695H12.8436V33.7756H10.6784V39.9066Z" fill="#C6AF66"/>
<path d="M21.0482 39.9066L20.197 37.732H17.4566L16.6148 39.9066H15.8104L18.5135 33.0414H19.1822L21.8712 39.9066H21.0482ZM19.9492 37.0165L19.1542 34.898C19.0513 34.6299 18.9453 34.301 18.8362 33.9113C18.7676 34.2106 18.6694 34.5395 18.5415 34.898L17.7372 37.0165H19.9492Z" fill="#C6AF66"/>
<path d="M29.5894 33.0695H30.4452L27.9807 39.9066H27.195L24.7445 33.0695H25.5863L27.1576 37.4935C27.3384 38.0017 27.4818 38.4958 27.5878 38.9759C27.7001 38.4709 27.8466 37.9674 28.0274 37.4654L29.5894 33.0695Z" fill="#C6AF66"/>
<path d="M35.0581 37.0632V39.9066H34.2631V33.0695H36.1384C36.9771 33.0695 37.5959 33.23 37.995 33.5512C38.3972 33.8723 38.5983 34.3555 38.5983 35.0009C38.5983 35.905 38.14 36.5161 37.2234 36.8341L39.08 39.9066H38.14L36.4845 37.0632H35.0581ZM35.0581 36.3805H36.1478C36.709 36.3805 37.1205 36.2698 37.3824 36.0484C37.6443 35.824 37.7752 35.4888 37.7752 35.043C37.7752 34.5909 37.6412 34.2651 37.373 34.0656C37.108 33.866 36.6809 33.7663 36.0917 33.7663H35.0581V36.3805Z" fill="#C6AF66"/>
<path d="M48.9914 36.4787C48.9914 37.573 48.714 38.4335 48.159 39.0601C47.6072 39.6868 46.8387 40.0001 45.8535 40.0001C44.8465 40.0001 44.0686 39.693 43.5199 39.0788C42.9743 38.4615 42.7015 37.5917 42.7015 36.4693C42.7015 35.3563 42.9758 34.4943 43.5246 33.8832C44.0733 33.269 44.8527 32.9619 45.8628 32.9619C46.8449 32.9619 47.6118 33.2737 48.1637 33.8972C48.7155 34.5208 48.9914 35.3812 48.9914 36.4787ZM43.5433 36.4787C43.5433 37.4046 43.7397 38.1077 44.1325 38.5878C44.5285 39.0648 45.1021 39.3033 45.8535 39.3033C46.6111 39.3033 47.1832 39.0648 47.5698 38.5878C47.9564 38.1108 48.1497 37.4077 48.1497 36.4787C48.1497 35.559 47.9564 34.8621 47.5698 34.3883C47.1863 33.9113 46.6173 33.6727 45.8628 33.6727C45.1052 33.6727 44.5285 33.9128 44.1325 34.3929C43.7397 34.8699 43.5433 35.5652 43.5433 36.4787Z" fill="#C6AF66"/>
<path d="M57.7291 35.0617C57.7291 35.7538 57.4921 36.2869 57.0182 36.6611C56.5475 37.0321 55.8725 37.2176 54.9933 37.2176H54.1889V39.9066H53.3939V33.0695H55.1663C56.8748 33.0695 57.7291 33.7335 57.7291 35.0617ZM54.1889 36.5348H54.9044C55.609 36.5348 56.1188 36.421 56.4337 36.1934C56.7486 35.9658 56.906 35.601 56.906 35.0991C56.906 34.647 56.7579 34.3103 56.4617 34.089C56.1655 33.8676 55.7041 33.7569 55.0775 33.7569H54.1889V36.5348Z" fill="#C6AF66"/>
<path d="M67.9726 36.4787C67.9726 37.573 67.6951 38.4335 67.1401 39.0601C66.5883 39.6868 65.8198 40.0001 64.8346 40.0001C63.8276 40.0001 63.0497 39.693 62.501 39.0788C61.9554 38.4615 61.6826 37.5917 61.6826 36.4693C61.6826 35.3563 61.957 34.4943 62.5057 33.8832C63.0544 33.269 63.8338 32.9619 64.844 32.9619C65.826 32.9619 66.593 33.2737 67.1448 33.8972C67.6966 34.5208 67.9726 35.3812 67.9726 36.4787ZM62.5244 36.4787C62.5244 37.4046 62.7208 38.1077 63.1136 38.5878C63.5096 39.0648 64.0832 39.3033 64.8346 39.3033C65.5922 39.3033 66.1643 39.0648 66.5509 38.5878C66.9375 38.1108 67.1308 37.4077 67.1308 36.4787C67.1308 35.559 66.9375 34.8621 66.5509 34.3883C66.1674 33.9113 65.5984 33.6727 64.844 33.6727C64.0864 33.6727 63.5096 33.9128 63.1136 34.3929C62.7208 34.8699 62.5244 35.5652 62.5244 36.4787Z" fill="#C6AF66"/>
<path d="M72.3751 39.9066V33.0695H73.1701V39.1864H76.1864V39.9066H72.3751Z" fill="#C6AF66"/>
<path d="M4.29338 0L5.34892 2.53782L8.08871 2.75747L6.00128 4.54558L6.63902 7.21915L4.29338 5.78644L1.94773 7.21915L2.58548 4.54558L0.498047 2.75747L3.23784 2.53782L4.29338 0Z" fill="#C6AF66"/>
<path d="M23.4487 0L24.5042 2.53782L27.244 2.75747L25.1565 4.54558L25.7943 7.21915L23.4487 5.78644L21.103 7.21915L21.7408 4.54558L19.6533 2.75747L22.3931 2.53782L23.4487 0Z" fill="#C6AF66"/>
<path d="M13.8715 0L14.927 2.53782L17.6668 2.75747L15.5794 4.54558L16.2171 7.21915L13.8715 5.78644L11.5259 7.21915L12.1636 4.54558L10.0762 2.75747L12.816 2.53782L13.8715 0Z" fill="#C6AF66"/>
<path d="M33.0258 0L34.0813 2.53782L36.8211 2.75747L34.7337 4.54558L35.3714 7.21915L33.0258 5.78644L30.6802 7.21915L31.3179 4.54558L29.2305 2.75747L31.9703 2.53782L33.0258 0Z" fill="#C6AF66"/>
</svg>
