<svg width="24" height="24" viewBox="0 0 24 24" fill="none" xmlns="http://www.w3.org/2000/svg">
<path fill-rule="evenodd" clip-rule="evenodd" d="M12 4C10.4052 4 8.87783 4.62669 7.75344 5.73872C6.62943 6.85039 6 8.35577 6 9.92308C6 12.6745 7.55792 15.2121 9.251 17.1378C10.0849 18.0862 10.9214 18.8518 11.5497 19.38C11.7163 19.52 11.8678 19.6429 12 19.7477C12.1322 19.6429 12.2837 19.52 12.4503 19.38C13.0786 18.8518 13.9151 18.0862 14.749 17.1378C16.4421 15.2121 18 12.6745 18 9.92308C18 8.35577 17.3706 6.85039 16.2466 5.73872C15.1222 4.62669 13.5948 4 12 4ZM12 21C11.4308 21.8222 11.4305 21.822 11.4302 21.8218L11.4276 21.82L11.4218 21.8159L11.4028 21.8026C11.3869 21.7913 11.3645 21.7754 11.336 21.7548C11.2791 21.7138 11.1981 21.6543 11.0962 21.5773C10.8926 21.4235 10.6055 21.1991 10.2628 20.9109C9.57861 20.3357 8.66513 19.5004 7.749 18.4584C5.94208 16.4033 4 13.4024 4 9.92308C4 7.81816 4.84557 5.80171 6.34706 4.31672C7.84818 2.8321 9.88181 2 12 2C14.1182 2 16.1518 2.8321 17.6529 4.31672C19.1544 5.80171 20 7.81816 20 9.92308C20 13.4024 18.0579 16.4033 16.251 18.4584C15.3349 19.5004 14.4214 20.3357 13.7372 20.9109C13.3945 21.1991 13.1074 21.4235 12.9038 21.5773C12.8019 21.6543 12.7209 21.7138 12.664 21.7548C12.6355 21.7754 12.6131 21.7913 12.5972 21.8026L12.5782 21.8159L12.5724 21.82L12.5705 21.8213C12.5702 21.8215 12.5692 21.8222 12 21ZM12 21L12.5692 21.8222C12.2268 22.0593 11.7727 22.0589 11.4302 21.8218L12 21ZM12 8C11.4477 8 11 8.44772 11 9C11 9.55228 11.4477 10 12 10C12.5523 10 13 9.55228 13 9C13 8.44772 12.5523 8 12 8ZM9 9C9 7.34315 10.3431 6 12 6C13.6569 6 15 7.34315 15 9C15 10.6569 13.6569 12 12 12C10.3431 12 9 10.6569 9 9Z" fill="#C6AF66"/>
</svg>
